<svg xmlns="http://www.w3.org/2000/svg" xmlns:xlink="http://www.w3.org/1999/xlink" width="354" height="232"><g><defs><path d="M 16 24 C 16 19.582 19.582 16 24 16 L 330 16 C 334.418 16 338 19.582 338 24 L 338 208 C 338 212.418 334.418 216 330 216 L 24 216 C 19.582 216 16 212.418 16 208 Z M 102 122 C 102 132.493 110.507 141 121 141 C 131.493 141 140 132.493 140 122 C 140 111.507 131.493 103 121 103 C 110.507 103 102 111.507 102 122 Z M 214 122 C 214 132.493 222.507 141 233 141 C 243.493 141 252 132.493 252 122 C 252 111.507 243.493 103 233 103 C 222.507 103 214 111.507 214 122 Z M 206 200 C 206 201.105 206.895 202 208 202 L 218 202 C 219.105 202 220 201.105 220 200 L 220 194 C 220 192.895 219.105 192 218 192 L 208 192 C 206.895 192 206 192.895 206 194 Z M 134 200 C 134 201.105 134.895 202 136 202 L 146 202 C 147.105 202 148 201.105 148 200 L 148 194 C 148 192.895 147.105 192 146 192 L 136 192 C 134.895 192 134 192.895 134 194 Z M 110 202.5 C 110 205.814 112.686 208.5 116 208.5 C 119.314 208.5 122 205.814 122 202.5 C 122 199.186 119.314 196.5 116 196.5 C 112.686 196.5 110 199.186 110 202.5 Z M 232 202.5 C 232 205.814 234.686 208.5 238 208.5 C 241.314 208.5 244 205.814 244 202.5 C 244 199.186 241.314 196.5 238 196.5 C 234.686 196.5 232 199.186 232 202.5 Z" id="a1000z"></path><filter id="a1002z" x="-3.9%" y="-7.3%" width="107.8%" height="114.5%" filterUnits="objectBoundingBox"><feOffset dx="0" dy="2" in="SourceAlpha" result="a1004z"></feOffset><feGaussianBlur stdDeviation="3" in="a1004z" result="a1005z"></feGaussianBlur><feColorMatrix color-interpolation-filters="sRGB" values="0 0 0 0 0 0 0 0 0 0 0 0 0 0 0 0 0 0 0.2 0" type="matrix" in="a1005z" result="a1006z"></feColorMatrix></filter><filter id="a1007z" x="-0.6%" y="-1.0%" width="101.2%" height="101.9%" filterUnits="objectBoundingBox"><feGaussianBlur stdDeviation="0.5" in="SourceAlpha" result="a1009z"></feGaussianBlur><feOffset dx="1" dy="1" in="a1009z" result="a1010z"></feOffset><feComposite in="a1010z" in2="SourceAlpha" operator="arithmetic" k2="-1" k3="1" result="a1011z"></feComposite><feColorMatrix color-interpolation-filters="sRGB" values="0 0 0 0 1 0 0 0 0 1 0 0 0 0 1 0 0 0 0.2 0" type="matrix" in="a1011z" result="a1012z"></feColorMatrix></filter></defs><g filter="url(#a1002z)"><use fill="black" fill-opacity="1" stroke="black" stroke-opacity="0" stroke-width="0" xlink:href="#a1000z" clip-path="url(#a1001z)"></use></g><use xlink:href="#a1000z" fill="hsl(0, 0%, 19%)" clip-path="url(#a1001z)"></use><use fill="black" fill-opacity="1" filter="url(#a1007z)" xlink:href="#a1000z"></use></g><g><defs><path d="M 206 194 C 206 192.895 206.895 192 208 192 L 218 192 C 219.105 192 220 192.895 220 194 L 220 200 C 220 201.105 219.105 202 218 202 L 208 202 C 206.895 202 206 201.105 206 200 Z" id="a1013z"></path><clipPath id="a1014z"><use xlink:href="#a1013z"></use></clipPath></defs><use xlink:href="#a1013z" fill="transparent" clip-path="url(#a1014z)" stroke-width="2" stroke="#303030"></use></g><g><defs><path d="M 134 194 C 134 192.895 134.895 192 136 192 L 146 192 C 147.105 192 148 192.895 148 194 L 148 200 C 148 201.105 147.105 202 146 202 L 136 202 C 134.895 202 134 201.105 134 200 Z" id="a1015z"></path><clipPath id="a1016z"><use xlink:href="#a1015z"></use></clipPath></defs><use xlink:href="#a1015z" fill="transparent" clip-path="url(#a1016z)" stroke-width="2" stroke="#303030"></use></g><g><defs><path d="M 116 196.5 C 119.314 196.5 122 199.186 122 202.5 C 122 205.814 119.314 208.5 116 208.5 C 112.686 208.5 110 205.814 110 202.5 C 110 199.186 112.686 196.5 116 196.5 Z" id="a1017z"></path><clipPath id="a1018z"><use xlink:href="#a1017z"></use></clipPath></defs><use xlink:href="#a1017z" fill="transparent" clip-path="url(#a1018z)" stroke-width="2" stroke="#303030"></use></g><g><defs><path d="M 238 196.5 C 241.314 196.5 244 199.186 244 202.5 C 244 205.814 241.314 208.5 238 208.5 C 234.686 208.5 232 205.814 232 202.5 C 232 199.186 234.686 196.5 238 196.5 Z" id="a1019z"></path><clipPath id="a1020z"><use xlink:href="#a1019z"></use></clipPath></defs><use xlink:href="#a1019z" fill="transparent" clip-path="url(#a1020z)" stroke-width="2" stroke="#303030"></use></g><path d="M 121 97 L 233 97 C 246.807 97 258 108.193 258 122 C 258 135.807 246.807 147 233 147 L 121 147 C 107.193 147 96 135.807 96 122 C 96 108.193 107.193 97 121 97 Z M 102 122 C 102 132.493 110.507 141 121 141 C 131.493 141 140 132.493 140 122 C 140 111.507 131.493 103 121 103 C 110.507 103 102 111.507 102 122 Z M 214 122 C 214 132.493 222.507 141 233 141 C 243.493 141 252 132.493 252 122 C 252 111.507 243.493 103 233 103 C 222.507 103 214 111.507 214 122 Z" fill="#a99871"></path><g><defs><path d="M 176 167.5 C 178.209 167.5 180 169.291 180 171.5 C 180 173.709 178.209 175.5 176 175.5 C 173.791 175.5 172 173.709 172 171.5 C 172 169.291 173.791 167.5 176 167.5 Z" id="a1023z"></path><filter id="a1025z" x="-25.9%" y="-25.9%" width="150.6%" height="150.6%" filterUnits="objectBoundingBox"><feOffset dx="0" dy="0" in="SourceAlpha" result="a1027z"></feOffset><feGaussianBlur stdDeviation="0.5" in="a1027z" result="a1028z"></feGaussianBlur><feColorMatrix color-interpolation-filters="sRGB" values="0 0 0 0 0 0 0 0 0 0 0 0 0 0 0 0 0 0 1 0" type="matrix" in="a1028z" result="a1029z"></feColorMatrix></filter><linearGradient id="idV4Dj1Xk2xg492758" gradientTransform="rotate(90, 0.5, 0.5)"><stop offset="0" stop-color="hsl(0, 0%, 43%)" stop-opacity="1"></stop><stop offset="1" stop-color="hsl(0, 0%, 55%)" stop-opacity="1"></stop></linearGradient></defs><g filter="url(#a1025z)"><use fill="black" fill-opacity="1" stroke="black" stroke-opacity="0" stroke-width="0" xlink:href="#a1023z" clip-path="url(#a1024z)"></use></g><use xlink:href="#a1023z" fill="url(#idV4Dj1Xk2xg492758)" clip-path="url(#a1024z)"></use></g><g><defs><path d="M 328 22 C 330.209 22 332 23.791 332 26 C 332 28.209 330.209 30 328 30 C 325.791 30 324 28.209 324 26 C 324 23.791 325.791 22 328 22 Z" id="a1030z"></path><filter id="a1032z" x="-25.9%" y="-25.9%" width="150.6%" height="150.6%" filterUnits="objectBoundingBox"><feOffset dx="0" dy="0" in="SourceAlpha" result="a1034z"></feOffset><feGaussianBlur stdDeviation="0.5" in="a1034z" result="a1035z"></feGaussianBlur><feColorMatrix color-interpolation-filters="sRGB" values="0 0 0 0 0 0 0 0 0 0 0 0 0 0 0 0 0 0 1 0" type="matrix" in="a1035z" result="a1036z"></feColorMatrix></filter><linearGradient id="idkQofpmJipg492758" gradientTransform="rotate(90, 0.5, 0.5)"><stop offset="0" stop-color="hsl(0, 0%, 43%)" stop-opacity="1"></stop><stop offset="1" stop-color="hsl(0, 0%, 55%)" stop-opacity="1"></stop></linearGradient></defs><g filter="url(#a1032z)"><use fill="black" fill-opacity="1" stroke="black" stroke-opacity="0" stroke-width="0" xlink:href="#a1030z" clip-path="url(#a1031z)"></use></g><use xlink:href="#a1030z" fill="url(#idkQofpmJipg492758)" clip-path="url(#a1031z)"></use></g><g><defs><path d="M 26 22 C 28.209 22 30 23.791 30 26 C 30 28.209 28.209 30 26 30 C 23.791 30 22 28.209 22 26 C 22 23.791 23.791 22 26 22 Z" id="a1037z"></path><filter id="a1039z" x="-25.9%" y="-25.9%" width="150.6%" height="150.6%" filterUnits="objectBoundingBox"><feOffset dx="0" dy="0" in="SourceAlpha" result="a1041z"></feOffset><feGaussianBlur stdDeviation="0.5" in="a1041z" result="a1042z"></feGaussianBlur><feColorMatrix color-interpolation-filters="sRGB" values="0 0 0 0 0 0 0 0 0 0 0 0 0 0 0 0 0 0 1 0" type="matrix" in="a1042z" result="a1043z"></feColorMatrix></filter><linearGradient id="idU14okrcaRg492758" gradientTransform="rotate(90, 0.5, 0.5)"><stop offset="0" stop-color="hsl(0, 0%, 43%)" stop-opacity="1"></stop><stop offset="1" stop-color="hsl(0, 0%, 55%)" stop-opacity="1"></stop></linearGradient></defs><g filter="url(#a1039z)"><use fill="black" fill-opacity="1" stroke="black" stroke-opacity="0" stroke-width="0" xlink:href="#a1037z" clip-path="url(#a1038z)"></use></g><use xlink:href="#a1037z" fill="url(#idU14okrcaRg492758)" clip-path="url(#a1038z)"></use></g><g><defs><path d="M 328 202 C 330.209 202 332 203.791 332 206 C 332 208.209 330.209 210 328 210 C 325.791 210 324 208.209 324 206 C 324 203.791 325.791 202 328 202 Z" id="a1044z"></path><filter id="a1046z" x="-25.9%" y="-25.9%" width="150.6%" height="150.6%" filterUnits="objectBoundingBox"><feOffset dx="0" dy="0" in="SourceAlpha" result="a1048z"></feOffset><feGaussianBlur stdDeviation="0.5" in="a1048z" result="a1049z"></feGaussianBlur><feColorMatrix color-interpolation-filters="sRGB" values="0 0 0 0 0 0 0 0 0 0 0 0 0 0 0 0 0 0 1 0" type="matrix" in="a1049z" result="a1050z"></feColorMatrix></filter><linearGradient id="idflyFN0WvQg492758" gradientTransform="rotate(90, 0.5, 0.5)"><stop offset="0" stop-color="hsl(0, 0%, 43%)" stop-opacity="1"></stop><stop offset="1" stop-color="hsl(0, 0%, 55%)" stop-opacity="1"></stop></linearGradient></defs><g filter="url(#a1046z)"><use fill="black" fill-opacity="1" stroke="black" stroke-opacity="0" stroke-width="0" xlink:href="#a1044z" clip-path="url(#a1045z)"></use></g><use xlink:href="#a1044z" fill="url(#idflyFN0WvQg492758)" clip-path="url(#a1045z)"></use></g><g><defs><path d="M 26 202 C 28.209 202 30 203.791 30 206 C 30 208.209 28.209 210 26 210 C 23.791 210 22 208.209 22 206 C 22 203.791 23.791 202 26 202 Z" id="a1051z"></path><filter id="a1053z" x="-25.9%" y="-25.9%" width="150.6%" height="150.6%" filterUnits="objectBoundingBox"><feOffset dx="0" dy="0" in="SourceAlpha" result="a1055z"></feOffset><feGaussianBlur stdDeviation="0.5" in="a1055z" result="a1056z"></feGaussianBlur><feColorMatrix color-interpolation-filters="sRGB" values="0 0 0 0 0 0 0 0 0 0 0 0 0 0 0 0 0 0 1 0" type="matrix" in="a1056z" result="a1057z"></feColorMatrix></filter><linearGradient id="idgfAEAnrzdg492758" gradientTransform="rotate(90, 0.5, 0.5)"><stop offset="0" stop-color="hsl(0, 0%, 43%)" stop-opacity="1"></stop><stop offset="1" stop-color="hsl(0, 0%, 55%)" stop-opacity="1"></stop></linearGradient></defs><g filter="url(#a1053z)"><use fill="black" fill-opacity="1" stroke="black" stroke-opacity="0" stroke-width="0" xlink:href="#a1051z" clip-path="url(#a1052z)"></use></g><use xlink:href="#a1051z" fill="url(#idgfAEAnrzdg492758)" clip-path="url(#a1052z)"></use></g><path d="M 482 240 C 484.209 240 486 241.791 486 244 C 486 246.209 484.209 248 482 248 C 479.791 248 478 246.209 478 244 C 478 241.791 479.791 240 482 240 Z" fill="#CCC"></path><path d="M 175.5 170 C 175.5 169.724 175.724 169.5 176 169.5 C 176.276 169.5 176.5 169.724 176.5 170 L 176.5 171 L 177.5 171 C 177.776 171 178 171.224 178 171.5 C 178 171.776 177.776 172 177.5 172 L 176.5 172 L 176.5 173 C 176.5 173.276 176.276 173.5 176 173.5 C 175.724 173.5 175.5 173.276 175.5 173 L 175.5 172 L 174.5 172 C 174.224 172 174 171.776 174 171.5 C 174 171.224 174.224 171 174.5 171 L 175.5 171 Z" fill="hsl(0, 0%, 9%)"></path><path d="M 25.5 204.5 C 25.5 204.224 25.724 204 26 204 C 26.276 204 26.5 204.224 26.5 204.5 L 26.5 205.5 L 27.5 205.5 C 27.776 205.5 28 205.724 28 206 C 28 206.276 27.776 206.5 27.5 206.5 L 26.5 206.5 L 26.5 207.5 C 26.5 207.776 26.276 208 26 208 C 25.724 208 25.5 207.776 25.5 207.5 L 25.5 206.5 L 24.5 206.5 C 24.224 206.5 24 206.276 24 206 C 24 205.724 24.224 205.5 24.5 205.5 L 25.5 205.5 Z" fill="hsl(0, 0%, 9%)"></path><path d="M 25.5 24.5 C 25.5 24.224 25.724 24 26 24 C 26.276 24 26.5 24.224 26.5 24.5 L 26.5 25.5 L 27.5 25.5 C 27.776 25.5 28 25.724 28 26 C 28 26.276 27.776 26.5 27.5 26.5 L 26.5 26.5 L 26.5 27.5 C 26.5 27.776 26.276 28 26 28 C 25.724 28 25.5 27.776 25.5 27.5 L 25.5 26.5 L 24.5 26.5 C 24.224 26.5 24 26.276 24 26 C 24 25.724 24.224 25.5 24.5 25.5 L 25.5 25.5 Z" fill="hsl(0, 0%, 9%)"></path><path d="M 327.5 24.5 C 327.5 24.224 327.724 24 328 24 C 328.276 24 328.5 24.224 328.5 24.5 L 328.5 25.5 L 329.5 25.5 C 329.776 25.5 330 25.724 330 26 C 330 26.276 329.776 26.5 329.5 26.5 L 328.5 26.5 L 328.5 27.5 C 328.5 27.776 328.276 28 328 28 C 327.724 28 327.5 27.776 327.5 27.5 L 327.5 26.5 L 326.5 26.5 C 326.224 26.5 326 26.276 326 26 C 326 25.724 326.224 25.5 326.5 25.5 L 327.5 25.5 Z" fill="hsl(0, 0%, 9%)"></path><path d="M 327.5 204.5 C 327.5 204.224 327.724 204 328 204 C 328.276 204 328.5 204.224 328.5 204.5 L 328.5 205.5 L 329.5 205.5 C 329.776 205.5 330 205.724 330 206 C 330 206.276 329.776 206.5 329.5 206.5 L 328.5 206.5 L 328.5 207.5 C 328.5 207.776 328.276 208 328 208 C 327.724 208 327.5 207.776 327.5 207.5 L 327.5 206.5 L 326.5 206.5 C 326.224 206.5 326 206.276 326 206 C 326 205.724 326.224 205.5 326.5 205.5 L 327.5 205.5 Z" fill="hsl(0, 0%, 9%)"></path><g><defs><path d="M 50.414 36.586 C 50.789 36.211 51.298 36 51.828 36 L 301.343 36 C 302.404 36 303.421 36.421 304.172 37.172 L 316.828 49.828 C 317.579 50.579 318 51.596 318 52.657 L 318 157 C 318 160.314 315.314 163 312 163 L 42 163 C 38.686 163 36 160.314 36 157 L 36 52.657 C 36 51.596 36.421 50.579 37.172 49.828 Z M 102 122 C 102 132.493 110.507 141 121 141 C 131.493 141 140 132.493 140 122 C 140 111.507 131.493 103 121 103 C 110.507 103 102 111.507 102 122 Z M 214 122 C 214 132.493 222.507 141 233 141 C 243.493 141 252 132.493 252 122 C 252 111.507 243.493 103 233 103 C 222.507 103 214 111.507 214 122 Z" id="a1070z"></path><filter id="a1072z" x="-1.1%" y="-2.4%" width="102.1%" height="104.6%" filterUnits="objectBoundingBox"><feGaussianBlur stdDeviation="1" in="SourceAlpha" result="a1074z"></feGaussianBlur><feOffset dx="1" dy="1" in="a1074z" result="a1075z"></feOffset><feComposite in="a1075z" in2="SourceAlpha" operator="arithmetic" k2="-1" k3="1" result="a1076z"></feComposite><feColorMatrix color-interpolation-filters="sRGB" values="0 0 0 0 0 0 0 0 0 0 0 0 0 0 0 0 0 0 0.4 0" type="matrix" in="a1076z" result="a1077z"></feColorMatrix></filter><linearGradient id="idDGOU7qGKvg6978" gradientTransform="rotate(44, 0.5, 0.5)"><stop offset="0" stop-color="hsl(48, 100%, 66%)" stop-opacity="1"></stop><stop offset="1" stop-color="hsl(48, 100%, 69%)" stop-opacity="1"></stop></linearGradient></defs><use xlink:href="#a1070z" fill="url(#idDGOU7qGKvg6978)" clip-path="url(#a1071z)"></use><use fill="black" fill-opacity="1" filter="url(#a1072z)" xlink:href="#a1070z"></use></g><g><defs><path d="M 233 103 C 243.493 103 252 111.507 252 122 C 252 132.493 243.493 141 233 141 C 222.507 141 214 132.493 214 122 C 214 111.507 222.507 103 233 103 Z M 231.56 134.921 C 231.521 134.788 231.5 134.646 231.5 134.5 L 231.5 132.5 C 231.5 131.672 232.172 131 233 131 C 233.828 131 234.5 131.672 234.5 132.5 L 234.5 134.5 C 234.5 134.646 234.479 134.788 234.44 134.921 C 236.951 134.644 239.246 133.653 241.118 132.155 C 240.996 132.088 240.881 132.003 240.778 131.899 L 239.364 130.485 C 238.778 129.899 238.778 128.95 239.364 128.364 C 239.95 127.778 240.899 127.778 241.485 128.364 L 242.899 129.778 C 243.003 129.881 243.088 129.996 243.155 130.118 C 244.653 128.246 245.644 125.951 245.921 123.44 C 245.788 123.479 245.646 123.5 245.5 123.5 L 243.5 123.5 C 242.672 123.5 242 122.828 242 122 C 242 121.172 242.672 120.5 243.5 120.5 L 245.5 120.5 C 245.646 120.5 245.788 120.521 245.921 120.56 C 245.644 118.049 244.653 115.754 243.155 113.882 C 243.088 114.004 243.003 114.119 242.899 114.222 L 241.485 115.636 C 240.899 116.222 239.95 116.222 239.364 115.636 C 238.778 115.05 238.778 114.101 239.364 113.515 L 240.778 112.101 C 240.881 111.997 240.996 111.912 241.118 111.845 C 239.246 110.347 236.951 109.356 234.44 109.079 C 234.479 109.212 234.5 109.354 234.5 109.5 L 234.5 111.5 C 234.5 112.328 233.828 113 233 113 C 232.172 113 231.5 112.328 231.5 111.5 L 231.5 109.5 C 231.5 109.354 231.521 109.212 231.56 109.079 C 229.049 109.356 226.754 110.347 224.882 111.845 C 225.004 111.912 225.119 111.997 225.222 112.101 L 226.636 113.515 C 227.222 114.101 227.222 115.05 226.636 115.636 C 226.05 116.222 225.101 116.222 224.515 115.636 L 223.101 114.222 C 222.997 114.119 222.912 114.004 222.845 113.882 C 221.347 115.754 220.356 118.049 220.079 120.56 C 220.212 120.521 220.354 120.5 220.5 120.5 L 222.5 120.5 C 223.328 120.5 224 121.172 224 122 C 224 122.828 223.328 123.5 222.5 123.5 L 220.5 123.5 C 220.354 123.5 220.212 123.479 220.079 123.44 C 220.356 125.951 221.347 128.246 222.845 130.118 C 222.912 129.996 222.997 129.881 223.101 129.778 L 224.515 128.364 C 225.101 127.778 226.05 127.778 226.636 128.364 C 227.222 128.95 227.222 129.899 226.636 130.485 L 225.222 131.899 C 225.119 132.003 225.004 132.088 224.882 132.155 C 226.754 133.653 229.049 134.644 231.56 134.921 Z" id="a1078z"></path><filter id="a1080z" x="-7.9%" y="-7.9%" width="115.5%" height="115.5%" filterUnits="objectBoundingBox"><feGaussianBlur stdDeviation="1" in="SourceAlpha" result="a1082z"></feGaussianBlur><feOffset dx="1" dy="1" in="a1082z" result="a1083z"></feOffset><feComposite in="a1083z" in2="SourceAlpha" operator="arithmetic" k2="-1" k3="1" result="a1084z"></feComposite><feColorMatrix color-interpolation-filters="sRGB" values="0 0 0 0 0 0 0 0 0 0 0 0 0 0 0 0 0 0 0.2 0" type="matrix" in="a1084z" result="a1085z"></feColorMatrix><feGaussianBlur stdDeviation="0.5" in="SourceAlpha" result="a1087z"></feGaussianBlur><feOffset dx="-1" dy="-1" in="a1087z" result="a1088z"></feOffset><feComposite in="a1088z" in2="SourceAlpha" operator="arithmetic" k2="-1" k3="1" result="a1089z"></feComposite><feColorMatrix color-interpolation-filters="sRGB" values="0 0 0 0 1 0 0 0 0 1 0 0 0 0 1 0 0 0 0.2 0" type="matrix" in="a1089z" result="a1090z"></feColorMatrix><feMerge><feMergeNode in="a1085z"></feMergeNode><feMergeNode in="a1090z"></feMergeNode></feMerge></filter></defs><use xlink:href="#a1078z" fill="hsl(0, 0%, 19%)" clip-path="url(#a1079z)"></use><use fill="black" fill-opacity="1" filter="url(#a1080z)" xlink:href="#a1078z"></use></g><g><defs><path d="M 121 103 C 131.493 103 140 111.507 140 122 C 140 132.493 131.493 141 121 141 C 110.507 141 102 132.493 102 122 C 102 111.507 110.507 103 121 103 Z M 119.56 134.921 C 119.521 134.788 119.5 134.646 119.5 134.5 L 119.5 132.5 C 119.5 131.672 120.172 131 121 131 C 121.828 131 122.5 131.672 122.5 132.5 L 122.5 134.5 C 122.5 134.646 122.479 134.788 122.44 134.921 C 124.951 134.644 127.246 133.653 129.118 132.155 C 128.996 132.088 128.881 132.003 128.778 131.899 L 127.364 130.485 C 126.778 129.899 126.778 128.95 127.364 128.364 C 127.95 127.778 128.899 127.778 129.485 128.364 L 130.899 129.778 C 131.003 129.881 131.088 129.996 131.155 130.118 C 132.653 128.246 133.644 125.951 133.921 123.44 C 133.788 123.479 133.646 123.5 133.5 123.5 L 131.5 123.5 C 130.672 123.5 130 122.828 130 122 C 130 121.172 130.672 120.5 131.5 120.5 L 133.5 120.5 C 133.646 120.5 133.788 120.521 133.921 120.56 C 133.644 118.049 132.653 115.754 131.155 113.882 C 131.088 114.004 131.003 114.119 130.899 114.222 L 129.485 115.636 C 128.899 116.222 127.95 116.222 127.364 115.636 C 126.778 115.05 126.778 114.101 127.364 113.515 L 128.778 112.101 C 128.881 111.997 128.996 111.912 129.118 111.845 C 127.246 110.347 124.951 109.356 122.44 109.079 C 122.479 109.212 122.5 109.354 122.5 109.5 L 122.5 111.5 C 122.5 112.328 121.828 113 121 113 C 120.172 113 119.5 112.328 119.5 111.5 L 119.5 109.5 C 119.5 109.354 119.521 109.212 119.56 109.079 C 117.049 109.356 114.754 110.347 112.882 111.845 C 113.004 111.912 113.119 111.997 113.222 112.101 L 114.636 113.515 C 115.222 114.101 115.222 115.05 114.636 115.636 C 114.05 116.222 113.101 116.222 112.515 115.636 L 111.101 114.222 C 110.997 114.119 110.912 114.004 110.845 113.882 C 109.347 115.754 108.356 118.049 108.079 120.56 C 108.212 120.521 108.354 120.5 108.5 120.5 L 110.5 120.5 C 111.328 120.5 112 121.172 112 122 C 112 122.828 111.328 123.5 110.5 123.5 L 108.5 123.5 C 108.354 123.5 108.212 123.479 108.079 123.44 C 108.356 125.951 109.347 128.246 110.845 130.118 C 110.912 129.996 110.997 129.881 111.101 129.778 L 112.515 128.364 C 113.101 127.778 114.05 127.778 114.636 128.364 C 115.222 128.95 115.222 129.899 114.636 130.485 L 113.222 131.899 C 113.119 132.003 113.004 132.088 112.882 132.155 C 114.754 133.653 117.049 134.644 119.56 134.921 Z" id="a1091z"></path><filter id="a1093z" x="-7.9%" y="-7.9%" width="115.5%" height="115.5%" filterUnits="objectBoundingBox"><feGaussianBlur stdDeviation="1" in="SourceAlpha" result="a1095z"></feGaussianBlur><feOffset dx="1" dy="1" in="a1095z" result="a1096z"></feOffset><feComposite in="a1096z" in2="SourceAlpha" operator="arithmetic" k2="-1" k3="1" result="a1097z"></feComposite><feColorMatrix color-interpolation-filters="sRGB" values="0 0 0 0 0 0 0 0 0 0 0 0 0 0 0 0 0 0 0.2 0" type="matrix" in="a1097z" result="a1098z"></feColorMatrix><feGaussianBlur stdDeviation="0.5" in="SourceAlpha" result="a1100z"></feGaussianBlur><feOffset dx="-1" dy="-1" in="a1100z" result="a1101z"></feOffset><feComposite in="a1101z" in2="SourceAlpha" operator="arithmetic" k2="-1" k3="1" result="a1102z"></feComposite><feColorMatrix color-interpolation-filters="sRGB" values="0 0 0 0 1 0 0 0 0 1 0 0 0 0 1 0 0 0 0.2 0" type="matrix" in="a1102z" result="a1103z"></feColorMatrix><feMerge><feMergeNode in="a1098z"></feMergeNode><feMergeNode in="a1103z"></feMergeNode></feMerge></filter></defs><use xlink:href="#a1091z" fill="hsl(0, 0%, 19%)" clip-path="url(#a1092z)"></use><use fill="black" fill-opacity="1" filter="url(#a1093z)" xlink:href="#a1091z"></use></g><g><defs><path d="M 116.599 57.979 C 116.544 54.67 119.179 51.941 122.488 51.88 L 218.827 50.11 C 222.144 50.049 224.881 52.692 224.936 56.01 L 225.401 84.021 C 225.456 87.33 222.821 90.059 219.512 90.12 L 123.173 91.89 C 119.856 91.951 117.119 89.308 117.064 85.99 Z" id="a1104z"></path><filter id="a1106z" x="-1.4%" y="-3.7%" width="102.7%" height="107.1%" filterUnits="objectBoundingBox"><feOffset dx="0.5" dy="0.5" in="SourceAlpha" result="a1108z"></feOffset><feGaussianBlur stdDeviation="0.25" in="a1108z" result="a1109z"></feGaussianBlur><feColorMatrix color-interpolation-filters="sRGB" values="0 0 0 0 0 0 0 0 0 0 0 0 0 0 0 0 0 0 0.08 0" type="matrix" in="a1109z" result="a1110z"></feColorMatrix></filter></defs><g filter="url(#a1106z)"><use fill="black" fill-opacity="1" stroke="black" stroke-opacity="0" stroke-width="0" xlink:href="#a1104z" clip-path="url(#a1105z)"></use></g><use xlink:href="#a1104z" fill="hsl(0, 0%, 99%)" clip-path="url(#a1105z)"></use></g><path d="M 12.226 11.897 L 12.097 12.132 C 12.097 12.545 11.954 12.865 11.669 13.093 C 11.674 13.224 11.619 13.35 11.519 13.435 L 11.412 13.67 L 11.134 13.862 L 11.005 14.097 L 10.149 14.546 L 9.742 14.652 L 9.121 14.695 L 8.779 14.546 L 8.5 14.567 L 8.222 14.375 L 8.008 14.353 L 7.151 13.905 L 6.38 13.264 C 6.152 13.065 5.81 12.78 5.353 12.41 L 4.882 11.769 L 4.496 11.449 L 4.432 11.299 L 4.239 11.064 C 4.031 10.811 3.809 10.568 3.576 10.338 L 3.212 10.21 L 2.805 9.398 L 2.869 9.078 C 2.955 8.622 3.183 8.366 3.554 8.309 L 3.961 8.437 L 4.304 8.779 L 4.668 9.014 L 5.01 9.014 L 5.096 9.078 C 5.21 9.078 5.303 9.085 5.374 9.099 C 5.517 9.028 5.767 8.95 6.124 8.864 L 6.316 8.821 L 6.445 8.544 L 6.959 8.544 C 7.097 8.424 7.269 8.349 7.451 8.33 L 7.494 8.33 C 7.537 8.23 7.594 8.109 7.665 7.967 L 8.072 7.775 L 8.243 7.604 L 8.564 7.07 L 8.714 7.07 C 8.771 6.928 8.828 6.728 8.886 6.472 L 9.078 6.344 L 8.928 6.258 L 9.014 5.895 C 8.985 5.838 8.907 5.788 8.779 5.746 L 8.522 5.831 L 8.436 5.66 L 8.222 5.575 L 8.158 5.489 C 7.852 5.452 7.545 5.424 7.237 5.404 L 7.237 5.318 L 7.108 5.404 C 7.025 5.38 6.938 5.366 6.852 5.361 C 6.666 5.361 6.395 5.461 6.038 5.66 L 5.738 5.66 C 5.196 5.845 4.889 5.981 4.817 6.066 L 4.346 6.216 L 3.683 6.75 L 3.062 7.369 L 3.062 7.454 L 2.655 8.159 L 2.527 8.565 L 2.441 8.608 L 2.441 8.693 C 2.402 8.77 2.366 8.848 2.334 8.928 L 2.205 8.992 L 2.248 9.056 L 2.184 9.163 C 2.14 9.266 2.166 9.386 2.248 9.462 C 2.248 9.761 2.177 9.953 2.034 10.039 C 2.007 10.092 1.992 10.15 1.991 10.21 C 1.991 10.252 1.998 10.288 2.013 10.317 C 2.021 10.526 1.969 10.734 1.863 10.915 C 1.814 10.959 1.771 11.009 1.734 11.064 L 1.799 11.384 L 1.734 11.812 L 1.756 12.153 C 1.658 12.347 1.6 12.557 1.584 12.773 C 1.613 12.915 1.627 12.994 1.627 13.008 C 1.627 13.164 1.538 13.328 1.36 13.499 C 1.181 13.67 1.013 13.755 0.856 13.755 C 0.657 13.755 0.45 13.634 0.236 13.392 L 0 12.73 L 0.064 12.346 L 0 11.513 L 0.064 11.299 L 0.064 10.616 L 0.107 10.338 L 0.107 10.103 C 0.107 9.818 0.121 9.53 0.15 9.238 L 0.193 8.779 L 0.193 8.416 L 0.214 8.223 L 0.214 7.625 L 0.278 7.454 L 0.214 7.198 L 0.3 6.493 L 0.3 5.746 L 0.214 5.318 L 0.321 5.148 L 0.3 5.062 L 0.214 3.909 L 0.064 3.204 L 0.064 3.012 L 0.193 2.285 L 0.107 2.008 L 0.064 1.495 C 0.057 1.345 0.043 1.195 0.021 1.047 C 0.021 0.548 0.414 0.285 1.199 0.256 L 1.67 0 L 1.584 1.047 L 1.67 1.645 L 1.52 2.264 L 1.563 2.948 L 1.67 3.332 L 1.606 3.695 L 1.649 4.208 L 1.584 4.635 L 1.691 5.083 L 1.649 5.19 L 1.734 5.404 L 1.627 6.002 L 1.627 6.13 L 1.734 6.536 C 1.663 6.564 1.627 6.671 1.627 6.856 L 1.563 7.369 L 1.606 7.561 L 1.863 7.113 L 1.991 6.621 L 2.291 6.13 C 2.291 5.988 2.344 5.851 2.441 5.746 L 2.676 5.746 L 2.848 5.383 L 3.34 5.148 C 3.532 4.953 3.766 4.807 4.025 4.72 L 4.154 4.614 L 4.496 4.443 L 4.775 4.379 C 5.074 4.122 5.724 3.951 6.723 3.866 L 8.393 3.994 L 8.736 4.186 L 8.907 4.208 L 9.271 4.592 L 9.292 4.464 C 9.478 4.55 9.614 4.685 9.699 4.87 C 9.771 4.856 9.799 4.849 9.785 4.849 C 9.847 4.851 9.908 4.873 9.956 4.913 L 10.406 5.831 L 10.384 5.938 C 10.456 6.08 10.491 6.208 10.491 6.322 C 10.484 6.543 10.4 6.754 10.256 6.92 L 10.256 7.049 L 9.956 7.839 L 9.506 8.458 L 9.378 8.48 L 9.121 8.821 C 8.964 8.821 8.843 8.779 8.757 8.693 L 8.757 9.035 L 8.586 9.142 L 8.457 9.377 L 8.072 9.483 C 8.015 9.498 7.951 9.562 7.879 9.676 C 6.894 10.06 6.345 10.252 6.231 10.252 C 6.148 10.248 6.066 10.237 5.984 10.22 C 5.882 10.201 5.778 10.19 5.674 10.188 C 5.63 10.186 5.586 10.193 5.545 10.21 C 5.56 10.252 5.638 10.409 5.781 10.68 L 6.059 10.85 L 6.445 11.534 L 7.023 11.876 L 7.066 11.961 L 7.258 12.068 L 7.537 12.388 L 8.051 12.794 L 8.736 13.072 L 9.121 13.179 L 9.399 13.157 L 9.549 13.093 C 9.835 13.05 10.106 12.937 10.363 12.751 L 10.727 12.089 L 10.941 11.833 L 11.069 11.449 C 11.284 11.377 11.455 11.342 11.583 11.342 C 11.912 11.342 12.126 11.527 12.226 11.897 Z M 19.784 11.726 C 19.784 11.897 19.655 12.111 19.398 12.367 C 19.338 12.575 19.228 12.766 19.077 12.922 L 18.949 12.944 L 18.713 13.35 L 18.328 13.414 L 17.921 13.67 L 17.707 14.054 L 17.471 14.012 C 17.349 14.072 17.22 14.115 17.086 14.14 L 16.958 14.332 C 16.895 14.315 16.83 14.308 16.765 14.311 C 16.579 14.311 16.401 14.439 16.23 14.695 L 15.93 14.439 C 15.845 14.456 15.759 14.463 15.673 14.46 C 15.512 14.465 15.351 14.436 15.202 14.375 L 14.838 14.375 L 14.667 14.268 C 14.124 14.183 13.782 13.976 13.639 13.649 L 13.639 13.584 L 13.382 13.456 L 13.253 13.093 L 12.996 12.922 L 12.996 12.602 L 12.74 11.662 L 12.782 10.893 L 12.868 10.551 L 12.868 10.103 L 12.975 9.761 L 12.954 9.612 L 13.104 9.355 L 13.061 9.398 C 13.064 9.256 13.101 9.117 13.168 8.992 L 13.168 8.885 L 13.104 8.373 C 13.104 8.131 13.211 7.917 13.425 7.732 C 13.441 7.691 13.449 7.648 13.446 7.604 C 13.434 7.484 13.409 7.366 13.371 7.251 C 13.332 7.13 13.307 7.005 13.296 6.878 C 13.296 6.707 13.339 6.529 13.425 6.344 C 13.531 6.511 13.719 6.608 13.917 6.6 L 13.981 6.6 C 14.03 6.522 14.096 6.456 14.174 6.408 C 14.288 6.052 14.445 5.753 14.645 5.511 L 14.731 5.425 C 14.731 5.368 14.774 5.205 14.859 4.934 L 15.031 4.934 L 15.073 4.827 L 15.245 4.784 C 15.286 4.713 15.332 4.646 15.384 4.582 C 15.405 4.56 15.559 4.471 15.844 4.315 C 15.91 4.205 15.997 4.111 16.101 4.037 C 16.17 4.004 16.242 3.975 16.315 3.951 L 16.401 3.823 C 16.786 3.695 17.029 3.631 17.129 3.631 C 17.243 3.631 17.35 3.66 17.45 3.717 L 17.557 3.695 L 17.707 3.781 C 17.878 3.909 18.049 4.016 18.221 4.101 L 18.585 4.379 L 18.585 4.464 C 18.913 4.72 19.077 5.083 19.077 5.553 L 19.013 5.767 L 19.077 6.472 L 18.885 6.6 L 18.67 7.155 L 18.264 7.604 L 18.242 7.946 C 17.841 8.239 17.418 8.503 16.979 8.736 C 16.85 8.935 16.651 9.035 16.379 9.035 L 16.315 9.035 L 15.908 9.291 L 15.566 9.291 L 15.052 9.505 L 14.667 9.313 L 14.624 9.313 C 14.595 9.427 14.567 9.597 14.538 9.825 L 14.367 9.953 L 14.345 10.21 L 14.217 10.573 C 14.26 10.915 14.281 11.135 14.281 11.235 L 14.196 11.299 C 14.196 11.484 14.188 11.619 14.174 11.705 C 14.174 11.719 14.167 11.74 14.153 11.769 L 14.153 11.833 C 14.153 11.947 14.21 12.039 14.324 12.111 C 14.367 12.282 14.438 12.388 14.538 12.431 L 14.688 12.559 L 15.159 12.687 L 15.159 12.751 L 15.33 12.794 L 16.058 12.837 L 16.486 12.773 L 16.701 12.623 L 16.829 12.581 L 17.043 12.26 L 17.15 12.239 L 17.686 12.068 C 17.753 11.959 17.849 11.87 17.964 11.812 L 18.028 11.705 C 18.314 11.648 18.478 11.498 18.521 11.256 C 18.725 11.055 19.004 10.947 19.291 10.957 L 19.377 10.957 C 19.648 11.271 19.784 11.527 19.784 11.726 Z M 17.664 5.575 C 17.654 5.487 17.632 5.401 17.6 5.318 L 17.493 5.297 L 17.45 5.318 L 17.364 5.318 C 17.338 5.332 17.309 5.339 17.279 5.34 C 17.256 5.337 17.234 5.33 17.214 5.318 L 17.15 5.318 L 16.936 5.468 L 16.743 5.489 L 16.636 5.532 L 16.272 6.002 L 16.037 6.173 L 15.694 6.771 L 15.502 6.899 C 15.464 7.13 15.36 7.345 15.202 7.518 L 15.116 7.668 C 15.276 7.567 15.462 7.515 15.651 7.518 L 15.801 7.454 L 15.866 7.262 L 16.165 7.283 L 16.337 7.027 L 16.465 7.027 L 16.701 7.113 L 16.808 6.792 L 16.958 6.792 L 16.958 6.557 L 17.236 6.493 L 17.3 6.429 L 17.343 6.237 L 17.621 5.831 C 17.652 5.749 17.666 5.662 17.664 5.575 Z M 34.771 10.017 C 34.771 10.131 34.679 10.281 34.493 10.466 L 34.258 10.829 L 34.172 11.256 L 33.979 11.32 L 33.936 11.449 C 33.708 11.52 33.544 11.698 33.444 11.983 C 33.309 12.164 33.133 12.31 32.93 12.41 C 32.874 12.469 32.809 12.52 32.737 12.559 L 32.63 12.751 L 32.438 12.794 L 31.881 13.093 L 31.153 13.179 L 30.96 13.136 L 30.639 13.2 L 30.511 13.05 C 30.35 12.979 30.205 12.877 30.082 12.751 C 29.911 12.709 29.783 12.573 29.697 12.346 C 29.454 12.061 29.333 11.833 29.333 11.662 L 29.333 11.598 L 29.183 11.342 L 29.14 11.299 L 29.012 10.915 L 28.819 10.509 L 28.862 10.017 L 28.648 9.74 L 28.327 7.903 C 28.288 7.699 28.266 7.491 28.263 7.283 L 28.22 7.177 L 28.113 7.027 L 27.92 7.283 L 27.149 8.095 L 26.871 8.544 L 26.721 8.843 L 26.485 9.184 L 26.314 9.355 L 26.336 9.462 L 26.036 10.124 L 25.865 10.338 L 25.65 10.381 L 25.458 10.573 C 25.458 10.858 25.322 11.043 25.051 11.128 L 25.008 11.171 C 24.88 11.484 24.737 11.676 24.58 11.748 L 24.387 12.047 C 24.073 12.331 23.866 12.509 23.766 12.581 C 23.724 12.722 23.643 12.848 23.531 12.944 C 23.486 13.005 23.436 13.062 23.381 13.115 C 23.338 13.357 23.138 13.528 22.781 13.627 L 22.546 13.691 C 22.26 13.677 22.025 13.513 21.839 13.2 L 21.518 12.666 L 21.625 12.153 L 21.582 11.876 L 21.625 11.833 L 21.647 11.555 L 21.411 11.043 L 21.582 10.786 L 21.497 10.509 L 21.647 10.21 L 21.689 9.718 L 21.604 9.633 L 21.775 9.334 L 21.711 9.184 L 21.689 8.843 L 21.775 8.202 C 21.754 8.111 21.739 8.018 21.732 7.924 C 21.732 7.896 21.739 7.867 21.754 7.839 L 21.754 7.753 L 21.647 7.583 L 21.711 6.899 L 21.689 6.664 L 21.754 6.322 L 21.668 5.746 L 22.053 5.105 C 22.496 5.176 22.803 5.272 22.974 5.393 C 23.145 5.514 23.231 5.731 23.231 6.045 L 23.231 6.237 L 23.381 6.493 L 23.317 6.942 L 23.402 7.796 L 23.252 8.202 L 23.317 8.65 L 23.317 9.014 L 23.145 9.249 L 23.274 9.633 L 23.145 9.868 L 23.124 10.103 L 23.252 10.338 L 23.081 10.786 L 23.017 10.979 L 23.017 11.171 L 23.124 11.384 L 23.488 11.021 C 23.488 10.808 23.559 10.665 23.702 10.594 C 23.716 10.452 23.773 10.345 23.873 10.274 L 23.809 10.21 L 24.087 9.953 L 24.152 9.868 L 24.152 9.676 L 24.494 9.419 L 24.58 9.206 L 24.773 9.078 L 25.608 8.138 C 25.536 8.223 25.301 8.487 24.901 8.928 L 24.901 8.971 L 24.944 8.821 L 25.222 8.501 L 25.415 8.138 L 25.415 7.924 L 25.736 7.817 L 25.779 7.54 L 25.865 7.454 L 25.886 7.348 L 25.886 7.198 L 26.186 6.899 L 26.186 6.792 C 26.175 6.765 26.168 6.736 26.164 6.707 C 26.164 6.45 26.307 6.308 26.592 6.28 C 26.697 6.042 26.914 5.873 27.171 5.831 L 27.299 5.639 L 27.342 5.596 C 27.482 5.403 27.687 5.267 27.92 5.212 L 28.113 4.977 L 28.627 4.977 L 28.883 5.276 L 29.119 5.404 L 29.14 5.468 L 29.29 5.511 L 29.333 5.959 L 29.697 6.173 L 29.547 6.643 L 29.783 7.155 L 29.783 7.753 L 29.954 8.565 L 29.997 9.334 L 30.19 9.783 L 30.318 10.338 C 30.413 10.44 30.479 10.565 30.511 10.701 L 30.896 10.808 L 30.896 11.235 L 31.11 11.47 L 31.11 11.534 L 31.196 11.555 L 31.282 11.683 L 31.367 11.577 C 31.339 11.577 31.374 11.584 31.474 11.598 C 31.631 11.598 31.795 11.456 31.967 11.171 L 32.224 11.107 L 32.288 11 C 32.334 10.883 32.427 10.79 32.545 10.744 L 32.695 10.765 L 32.78 10.68 L 32.802 10.573 L 32.866 10.487 C 33.014 10.38 33.114 10.219 33.144 10.039 L 33.38 9.783 L 33.423 9.59 L 33.572 9.249 L 33.979 9.099 L 34.557 9.291 L 34.75 9.911 C 34.75 9.925 34.757 9.939 34.771 9.953 Z M 49.117 10.017 C 49.117 10.131 49.024 10.281 48.839 10.466 L 48.603 10.829 L 48.517 11.256 L 48.325 11.32 L 48.282 11.449 C 48.053 11.52 47.889 11.698 47.789 11.983 C 47.655 12.164 47.478 12.31 47.276 12.41 C 47.219 12.469 47.154 12.52 47.083 12.559 L 46.976 12.751 L 46.783 12.794 L 46.226 13.093 L 45.498 13.179 L 45.306 13.136 L 44.985 13.2 L 44.856 13.05 C 44.696 12.979 44.55 12.877 44.428 12.751 C 44.257 12.709 44.128 12.573 44.042 12.346 C 43.8 12.061 43.678 11.833 43.678 11.662 L 43.678 11.598 L 43.529 11.342 L 43.486 11.299 L 43.357 10.915 L 43.165 10.509 L 43.207 10.017 L 42.993 9.74 L 42.672 7.903 C 42.633 7.699 42.612 7.491 42.608 7.283 L 42.565 7.177 L 42.458 7.027 L 42.265 7.283 L 41.495 8.095 L 41.216 8.544 L 41.066 8.843 L 40.831 9.184 L 40.66 9.355 L 40.681 9.462 L 40.381 10.124 L 40.21 10.338 L 39.996 10.381 L 39.803 10.573 C 39.803 10.858 39.667 11.043 39.396 11.128 L 39.353 11.171 C 39.225 11.484 39.082 11.676 38.925 11.748 L 38.733 12.047 C 38.419 12.331 38.212 12.509 38.112 12.581 C 38.07 12.722 37.988 12.848 37.876 12.944 C 37.831 13.005 37.781 13.062 37.726 13.115 C 37.683 13.357 37.484 13.528 37.127 13.627 L 36.891 13.691 C 36.606 13.677 36.37 13.513 36.185 13.2 L 35.863 12.666 L 35.971 12.153 L 35.928 11.876 L 35.971 11.833 L 35.992 11.555 L 35.756 11.043 L 35.928 10.786 L 35.842 10.509 L 35.992 10.21 L 36.035 9.718 L 35.949 9.633 L 36.12 9.334 L 36.056 9.184 L 36.035 8.843 L 36.12 8.202 C 36.099 8.111 36.085 8.018 36.078 7.924 C 36.078 7.896 36.085 7.867 36.099 7.839 L 36.099 7.753 L 35.992 7.583 L 36.056 6.899 L 36.035 6.664 L 36.099 6.322 L 36.013 5.746 L 36.399 5.105 C 36.841 5.176 37.148 5.272 37.319 5.393 C 37.491 5.514 37.576 5.731 37.576 6.045 L 37.576 6.237 L 37.726 6.493 L 37.662 6.942 L 37.748 7.796 L 37.598 8.202 L 37.662 8.65 L 37.662 9.014 L 37.491 9.249 L 37.619 9.633 L 37.491 9.868 L 37.469 10.103 L 37.598 10.338 L 37.426 10.786 L 37.362 10.979 L 37.362 11.171 L 37.469 11.384 L 37.833 11.021 C 37.833 10.808 37.905 10.665 38.047 10.594 C 38.062 10.452 38.119 10.345 38.219 10.274 L 38.154 10.21 L 38.433 9.953 L 38.497 9.868 L 38.497 9.676 L 38.84 9.419 L 38.925 9.206 L 39.118 9.078 L 39.953 8.138 C 39.882 8.223 39.646 8.487 39.246 8.928 L 39.246 8.971 L 39.289 8.821 L 39.568 8.501 L 39.76 8.138 L 39.76 7.924 L 40.081 7.817 L 40.124 7.54 L 40.21 7.454 L 40.231 7.348 L 40.231 7.198 L 40.531 6.899 L 40.531 6.792 C 40.52 6.765 40.513 6.736 40.51 6.707 C 40.51 6.45 40.652 6.308 40.938 6.28 C 41.042 6.042 41.26 5.873 41.516 5.831 L 41.644 5.639 L 41.687 5.596 C 41.828 5.403 42.033 5.267 42.265 5.212 L 42.458 4.977 L 42.972 4.977 L 43.229 5.276 L 43.464 5.404 L 43.486 5.468 L 43.636 5.511 L 43.678 5.959 L 44.042 6.173 L 43.893 6.643 L 44.128 7.155 L 44.128 7.753 L 44.299 8.565 L 44.342 9.334 L 44.535 9.783 L 44.663 10.338 C 44.758 10.44 44.825 10.565 44.856 10.701 L 45.241 10.808 L 45.241 11.235 L 45.456 11.47 L 45.456 11.534 L 45.541 11.555 L 45.627 11.683 L 45.713 11.577 C 45.684 11.577 45.72 11.584 45.82 11.598 C 45.977 11.598 46.141 11.456 46.312 11.171 L 46.569 11.107 L 46.633 11 C 46.679 10.883 46.773 10.79 46.89 10.744 L 47.04 10.765 L 47.126 10.68 L 47.147 10.573 L 47.211 10.487 C 47.359 10.38 47.459 10.219 47.49 10.039 L 47.725 9.783 L 47.768 9.59 L 47.918 9.249 L 48.325 9.099 L 48.903 9.291 L 49.095 9.911 C 49.095 9.925 49.103 9.939 49.117 9.953 Z M 61 9.441 C 60.957 9.597 60.893 9.775 60.807 9.975 L 60.829 10.103 L 60.979 10.872 L 60.829 11.683 L 60.893 12.068 L 60.764 12.346 L 60.85 13.285 L 60.764 13.435 L 60.764 14.054 L 60.743 14.546 L 60.807 14.759 L 60.764 16.105 L 60.936 16.489 L 60.807 16.66 L 60.872 17.023 L 60.764 17.13 L 60.872 17.493 L 60.679 17.707 L 60.679 17.856 L 60.593 18.049 C 60.55 18.291 60.393 18.639 60.122 19.095 L 59.972 19.629 C 59.896 19.663 59.824 19.706 59.758 19.757 L 59.694 19.821 L 59.501 20.078 L 59.287 20.398 L 58.923 20.59 C 58.752 20.904 58.552 21.082 58.324 21.124 C 58.279 21.173 58.229 21.216 58.174 21.252 L 58.11 21.317 L 57.81 21.445 L 57.638 21.616 L 57.424 21.616 L 57.317 21.786 L 56.932 21.701 L 56.525 21.957 L 56.14 21.872 L 55.433 21.979 L 55.283 21.957 L 55.176 22 L 54.47 21.872 L 54.148 21.872 L 54.02 21.744 L 53.164 21.466 L 52.436 21.359 L 52.329 21.167 L 51.943 21.124 L 51.815 20.761 L 51.558 20.697 L 51.386 20.377 L 50.98 20.227 L 50.637 19.736 L 50.016 19.351 L 50.059 18.946 C 50.03 18.931 49.966 18.654 49.866 18.113 C 49.866 17.885 49.916 17.607 50.016 17.28 L 50.016 17.087 L 50.23 16.981 L 50.359 16.617 L 50.444 16.66 L 50.658 16.318 L 51.044 16.019 L 51.344 15.934 L 51.922 15.464 L 52.478 15.507 C 52.621 15.364 52.807 15.293 53.035 15.293 C 53.363 15.45 53.528 15.642 53.528 15.87 C 53.528 16.012 53.463 16.155 53.335 16.297 L 53.035 16.447 L 52.714 16.682 L 52.393 16.767 L 52.2 17.13 L 51.879 17.13 L 51.75 17.344 L 51.472 17.579 L 51.494 17.899 L 51.322 18.198 L 51.408 18.412 L 51.558 18.753 L 52.029 19.052 L 52.136 19.373 L 52.714 19.821 L 53.035 19.843 L 53.42 20.142 L 53.806 20.142 L 54.041 20.377 L 54.341 20.355 L 54.512 20.483 L 55.54 20.441 L 56.204 20.227 L 56.611 20.249 L 57.06 19.992 C 57.156 19.953 57.257 19.932 57.36 19.928 L 57.51 19.843 L 57.617 19.672 L 57.831 19.736 L 57.917 19.65 L 57.917 19.48 C 57.931 19.394 58.024 19.323 58.195 19.266 C 58.265 19.11 58.386 18.982 58.538 18.903 C 58.6 18.754 58.636 18.595 58.645 18.433 L 58.945 18.262 L 59.009 18.113 C 59.066 17.999 59.123 17.878 59.18 17.75 L 59.201 17.685 L 59.266 16.852 L 59.351 16.788 L 59.351 16.447 L 59.266 16.126 L 59.394 15.87 C 59.372 15.678 59.358 15.486 59.351 15.293 C 59.351 15.165 59.358 15.019 59.373 14.855 C 59.387 14.692 59.394 14.595 59.394 14.567 L 59.394 13.478 L 59.244 13.2 L 59.394 12.751 L 59.351 12.324 L 59.351 11.235 L 59.287 10.957 L 59.373 10.808 L 59.373 10.53 C 59.373 10.43 59.38 10.366 59.394 10.338 L 59.223 9.847 L 59.223 9.099 L 58.987 9.483 L 58.73 9.676 L 58.473 9.932 L 58.302 9.996 L 58.238 10.252 L 58.045 10.359 L 58.024 10.423 L 57.724 10.68 L 57.317 11.171 L 56.739 11.769 L 56.525 11.833 L 56.461 11.94 L 55.819 12.41 L 55.626 12.41 L 55.412 12.623 L 55.326 12.837 L 54.855 12.986 L 54.769 13.136 L 54.448 13.179 L 53.999 13.478 L 53.635 13.563 L 53.463 13.691 L 53.228 13.734 L 53.164 13.777 C 52.978 13.976 52.685 14.076 52.286 14.076 C 51.857 14.076 51.522 13.94 51.279 13.67 L 50.808 12.965 L 50.787 12.559 L 50.53 11.79 L 50.53 11.15 L 50.444 10.893 L 50.573 10.68 L 50.466 10.21 L 50.616 10.082 L 50.637 9.868 L 50.766 9.612 L 50.723 9.163 L 50.808 8.992 L 50.808 8.843 C 50.808 8.544 50.858 8.195 50.958 7.796 L 50.894 7.219 L 50.958 6.685 L 50.766 5.917 L 50.808 5.767 L 50.723 5.639 L 50.98 4.955 C 51.037 4.728 51.065 4.5 51.065 4.272 C 51.343 4.128 51.669 4.105 51.965 4.208 L 52.157 4.635 L 52.521 4.891 L 52.414 5.404 L 52.607 5.724 L 52.521 5.938 L 52.8 6.173 L 52.543 6.643 L 52.671 7.198 L 52.521 7.433 L 52.543 7.476 L 52.414 8.394 L 52.414 9.227 L 52.286 9.355 L 52.2 10.103 L 52.007 10.338 C 52.007 10.409 52.015 10.502 52.029 10.616 L 52.029 10.829 L 52.179 11.214 L 52.029 11.491 L 52.072 11.833 L 52.029 11.918 L 52.072 12.175 L 52.264 12.346 L 52.414 12.303 L 52.436 12.431 L 52.585 12.217 L 53.206 12.217 C 53.299 12.127 53.408 12.055 53.528 12.004 C 53.856 11.776 54.148 11.648 54.405 11.619 L 54.427 11.342 C 54.826 11.128 55.333 10.85 55.947 10.509 L 56.033 10.338 C 55.998 10.361 55.963 10.383 55.926 10.402 L 56.225 10.21 L 56.311 9.932 L 56.461 9.697 L 56.761 9.59 L 56.932 9.334 L 57.039 9.355 L 57.167 9.27 L 57.424 8.992 L 57.531 8.971 L 57.553 8.907 L 57.938 8.501 L 58.174 8.117 C 58.34 8.067 58.484 7.961 58.581 7.817 L 58.88 7.198 L 58.837 6.536 L 59.052 6.45 L 59.052 6.386 L 58.923 6.002 L 58.945 5.917 C 58.845 5.76 58.795 5.639 58.795 5.553 C 58.795 5.397 58.88 5.205 59.052 4.977 L 59.052 5.041 L 59.137 4.827 L 59.159 4.742 L 59.159 4.806 C 59.273 4.521 59.558 4.372 60.015 4.357 L 60.7 5.019 L 60.764 5.575 L 60.979 5.938 L 60.85 6.28 L 60.872 6.429 L 60.872 6.536 C 60.843 6.579 60.807 6.643 60.764 6.728 L 60.829 6.856 L 60.829 7.198 L 60.743 7.54 L 60.829 8.01 L 60.829 8.351 L 60.893 8.501 L 60.85 8.907 Z" transform="translate(137.278 62.428) rotate(-6 30.5 11)" fill="rgb(14,14,14)"></path></svg>